<?xml version="1.0" standalone="no"?>
<!DOCTYPE svg PUBLIC "-//W3C//DTD SVG 1.1//EN" "http://www.w3.org/Graphics/SVG/1.1/DTD/svg11.dtd">
<svg width="48px" height="46px" version="1.1" xmlns="http://www.w3.org/2000/svg" xmlns:xlink="http://www.w3.org/1999/xlink" xml:space="preserve" style="fill-rule:evenodd;clip-rule:evenodd;stroke-linejoin:round;stroke-miterlimit:1.41421;">
    <g>
        <g id="todo-icon">
            <g>
                <path d="M41.7353,26.05L30.2353,26.05C28.5353,26.05 27.0353,27.55 27.0353,29.25L27.0353,40.75C27.0353,42.55 28.5353,43.95 30.2353,43.95L41.7353,43.95C43.5353,43.95 44.9353,42.45 44.9353,40.75L44.9353,29.25C44.9353,27.55 43.5353,26.05 41.7353,26.05Z" style="fill:rgb(120,178,242);"/>
            </g>
            <g>
                <path d="M41.7353,2.05L30.2353,2.05C28.5353,2.05 27.0353,3.55 27.0353,5.25L27.0353,16.75C27.0353,18.55 28.5353,19.95 30.2353,19.95L41.7353,19.95C43.5353,19.95 44.9353,18.45 44.9353,16.75L44.9353,5.25C44.9353,3.55 43.5353,2.05 41.7353,2.05Z" style="fill:rgb(187,187,187);"/>
            </g>
            <g id="Shape">
                <path d="M10.3489,9.05L10.3489,15.05L14.3489,15.05L14.3489,9.05L17.3489,9.05L12.3489,5.05L7.34891,9.05ZM18.0489,2.05L6.54891,2.05C4.84891,2.05 3.34891,3.55 3.34891,5.25L3.34891,16.75C3.34891,18.55 4.84891,19.95 6.54891,19.95L18.0489,19.95C19.8489,19.95 21.2489,18.45 21.2489,16.75L21.2489,5.25C21.2489,3.55 19.8489,2.05 18.0489,2.05ZM10.3489,16.05L10.3489,17.05L14.3489,17.05L14.3489,16.05Z" style="fill:rgb(187,187,187);"/>
            </g>
            <g>
                <path d="M34.0353,9.05L34.0353,15.05L38.0353,15.05L38.0353,9.05L41.0353,9.05L36.0353,5.05L31.0353,9.05Z" style="fill:rgb(111,253,0);"/>
            </g>
            <g>
                <rect x="34.0353" y="16.05" width="4" height="1" style="fill:rgb(111,253,0);"/>
            </g>
            <g id="Shape1">
                <path d="M10.3489,33.05L10.3489,39.05L14.3489,39.05L14.3489,33.05L17.3489,33.05L12.3489,29.05L7.34891,33.05ZM18.0489,26.05L6.54891,26.05C4.84891,26.05 3.34891,27.55 3.34891,29.25L3.34891,40.75C3.34891,42.55 4.84891,43.95 6.54891,43.95L18.0489,43.95C19.8489,43.95 21.2489,42.45 21.2489,40.75L21.2489,29.25C21.2489,27.55 19.8489,26.05 18.0489,26.05ZM10.3489,40.05L10.3489,41.05L14.3489,41.05L14.3489,40.05Z" style="fill:rgb(120,178,242);"/>
            </g>
            <g>
                <path d="M34.0353,33.05L34.0353,39.05L38.0353,39.05L38.0353,33.05L41.0353,33.05L36.0353,29.05L31.0353,33.05Z" style="fill:rgb(111,253,0);"/>
            </g>
            <g>
                <rect x="34.0353" y="40.05" width="4" height="1" style="fill:rgb(111,253,0);"/>
            </g>
        </g>
    </g>
</svg>
