<?xml version="1.0" encoding="UTF-8" standalone="no"?>
<svg width="24px" height="46px" viewBox="0 0 24 46" version="1.1" xmlns="http://www.w3.org/2000/svg" xmlns:xlink="http://www.w3.org/1999/xlink" xmlns:sketch="http://www.bohemiancoding.com/sketch/ns">
    <!-- Generator: Sketch 3.0 (7574) - http://www.bohemiancoding.com/sketch -->
    <title>Slice 1</title>
    <description>Created with Sketch.</description>
    <defs></defs>
    <g id="Page-1" stroke="none" stroke-width="1" fill="none" fill-rule="evenodd" sketch:type="MSPage">
        <g id="todo-icon" sketch:type="MSLayerGroup" transform="translate(3.000000, 2.000000)">
            <path d="M7,7 L7,13 L11,13 L11,7 L14,7 L9,3 L4,7 L7,7 Z M14.7,0 L3.2,0 C1.5,0 0,1.5 0,3.2 L0,14.7 C0,16.5 1.5,17.9 3.2,17.9 L14.7,17.9 C16.5,17.9 17.9,16.4 17.9,14.7 L17.9,3.2 C17.9,1.5 16.5,0 14.7,0 Z M7,14 L7,15 L11,15 L11,14 L7,14 Z" id="Shape" fill="#BBBBBB" sketch:type="MSShapeGroup"></path>
            <path d="M7,31 L7,37 L11,37 L11,31 L14,31 L9,27 L4,31 L7,31 Z M14.7,24 L3.2,24 C1.5,24 0,25.5 0,27.2 L0,38.7 C0,40.5 1.5,41.9 3.2,41.9 L14.7,41.9 C16.5,41.9 17.9,40.4 17.9,38.7 L17.9,27.2 C17.9,25.5 16.5,24 14.7,24 Z M7,38 L7,39 L11,39 L11,38 L7,38 Z" id="Shape" fill="#78B2F2" sketch:type="MSShapeGroup"></path>
        </g>
    </g>
</svg>